<svg id="Layer_1" data-name="Layer 1" xmlns="http://www.w3.org/2000/svg" viewBox="0 0 1705.3 437.48">
  <defs>
    <style>
      .cls-1 {
        fill: #001744;
      }

      .cls-2 {
        fill: #ce1443;
      }
    </style>
  </defs>
  <g>
    <path class="cls-1" d="M167.54,252.52H310.67c11.85,0,16.26-4.42,16.26-16.25,0-12.14,0-24.28,0-36.42,0-9.62-4.76-14.37-14.44-14.37q-69,0-137.93,0h-7.23c.7-6.25.75-12.2,2.12-17.84,7.16-29.52,25.39-51.21,50-67.83,33.76-22.8,71.5-32.53,112-31.74,12.92.25,25.82,2,39.3,3.08v6.8q0,141,.11,281.94c0,4.5-1,6.28-5.7,7-53.78,8.19-104.22.29-149.36-31.52-24.32-17.14-41.47-39.7-47.28-69.59C167.71,261.73,167.88,257.52,167.54,252.52Z"/>
    <path class="cls-2" d="M370.38.37V35.6h-6c-19.48.11-39-.59-58.44.47C240,39.67,178.4,56.75,124.84,97c-26.41,19.86-47.56,44.25-59,75.69-16.75,46.09-7.59,88.35,21.26,126.84,22.78,30.4,53.15,51.37,87.28,67.22a320.53,320.53,0,0,0,112.22,29.54c25.53,1.87,51.21,1.54,76.83,2.18,2.13.06,4.27,0,6.75,0v35.3c-1.74.08-3.35.26-5,.23-29.45-.64-59-.08-88.32-2.21-59.1-4.29-116-17.78-168.3-46.69-36.2-20-66.66-46.25-86.92-82.93-36.95-66.85-25.87-149.95,27-205.45,33.91-35.61,75.71-58.07,121.77-73.42,34.7-11.56,70.38-18.92,106.87-21C307,.63,336.83.69,366.61,0A36.54,36.54,0,0,1,370.38.37Z"/>
    <path class="cls-1" d="M928.43,34.19h41.26v7c0,71.68-.24,143.36.11,215,.15,31.39,7,61.46,23.54,88.5a128.24,128.24,0,0,0,21.77,27c28.88,26.75,65.85,26.21,94.66-.68,20.53-19.15,31.73-43.55,38.51-70.25a197.67,197.67,0,0,0,5.89-48.87q0-105.51,0-211V34.26h40.89c.07,1.64.22,3.39.22,5.14,0,72.34.47,144.69-.15,217-.42,48.66-13.74,93.53-45,131.84-17.25,21.12-38.58,36.72-65.68,42.78-33.45,7.47-63.36-1-89.77-22.09-29.42-23.52-46.59-55-57.06-90.48a226.75,226.75,0,0,1-9.17-64.42q0-106.77,0-213.54Z"/>
    <path class="cls-1" d="M474.67,433.94H434.85V34.27c6.74,0,13.5-.27,20.23,0,27.35,1.29,54.37,4.74,80.34,13.93,25.5,9,47.7,22.75,63.38,45.45,14.28,20.68,19.78,44.05,20.63,68.74,1.25,36.52-15.18,65.35-40.19,90.11-27.75,27.49-61.93,42.52-99.93,49.5-3.91.72-4.72,2.19-4.71,5.78q.16,59.88.07,119.76ZM475,265.56a18.1,18.1,0,0,0,3.63,0c29.2-6.56,55.32-18.86,75.83-41.29,28.51-31.17,30.07-73.14,3.93-105.94C544.65,101.11,527,89.16,506.7,81.14c-10.11-4-20.7-6.79-31.74-10.35Z"/>
    <path class="cls-1" d="M1573.86,206.87v43.94l-96.56-2.19V389.84H1592c.78,16.13,1.51,31.32,2.26,46.93-12.56-.64-24.47-1.2-36.37-1.88q-49.34-2.81-98.66-5.7c-6.48-.38-13-.79-19.44-1-2.86-.09-4.43-.94-4.1-4.06a37.92,37.92,0,0,0,0-4V42.48l148.56-9c.75,15.28,1.48,30.09,2.25,45.51H1477.27V209Z"/>
    <path class="cls-1" d="M1363.23,34.23,1378,72.47c-11.66,5.54-23.19,10.62-34.34,16.42-19.73,10.25-38.35,22.17-53.25,39-18.54,20.93-18.43,39.81,0,60.79,11,12.52,24.75,21.6,38,31.39,12.69,9.38,25.94,18.29,37.32,29.11,16.32,15.52,26.69,34.72,27.86,57.9.86,17-4.28,32.44-13.34,46.65-13.44,21.08-32.36,36.44-53,49.93A360.28,360.28,0,0,1,1263,436.56c-.75.3-1.55.49-3,.92q-7.56-19.26-15-38.23c10.9-5.11,21.57-9.74,31.9-15,21.42-11,41.86-23.46,58.19-41.48a86.31,86.31,0,0,0,11.17-15.83c6.21-11.16,6.36-23-.41-33.7-4.8-7.61-10.58-15.15-17.53-20.73-16.58-13.32-34.59-24.88-51.1-38.29A159.18,159.18,0,0,1,1251.05,207c-23.53-31-23.33-65.82-.46-97.35,9-12.36,20-22.69,32.09-31.91C1304.74,61,1339.25,42.27,1363.23,34.23Z"/>
    <path class="cls-1" d="M721,433.92H680.46V34.34H721Z"/>
    <path class="cls-2" d="M826.94,187.81a28.88,28.88,0,0,1,29.26,28.9,29.32,29.32,0,0,1-58.63.39C797.52,200.6,810.35,187.81,826.94,187.81Z"/>
    <path class="cls-1" d="M1636.63,55.87a34.3,34.3,0,0,1,34-34.54c18.9-.23,34.58,15.41,34.63,34.56a34.34,34.34,0,1,1-68.67,0Zm4.71.2c.12,16.16,13.6,29.57,29.63,29.47A30,30,0,0,0,1700.58,56c.11-15.87-13.54-29.67-29.49-29.8C1654.88,26,1641.23,39.74,1641.34,56.07Z"/>
    <path class="cls-1" d="M1665,60.12V76.68h-6V35.12c5.68,0,11.34-.54,16.84.13,7.9,1,10.76,12.64,5,19.27a50.75,50.75,0,0,1-3.77,3.56l9.57,18.15c-6.55,1.5-6.57,1.49-9.33-4-1.57-3.11-2.82-6.45-4.84-9.24-1.36-1.88-3.81-3-5.77-4.41Zm.24-4.66c4.19-1.76,8.12-2.44,10.39-4.74,1.38-1.41,1.11-5.8,0-8-2.14-4.19-6.45-2.67-10.37-2.47Z"/>
  </g>
</svg>
