<svg id="Layer_1" data-name="Layer 1" xmlns="http://www.w3.org/2000/svg" viewBox="0 0 370.83 434.03">
  <defs>
    <style>
      .cls-1 {
        fill: #001744;
      }

      .cls-2 {
        fill: #ce1443;
      }
    </style>
  </defs>
  <path class="cls-1" d="M167.54,252.52H310.67c11.85,0,16.26-4.42,16.26-16.25,0-12.14,0-24.28,0-36.42,0-9.62-4.76-14.37-14.44-14.37q-69,0-137.93,0h-7.23c.7-6.25.75-12.2,2.12-17.84,7.16-29.52,25.39-51.21,50-67.83,33.76-22.8,71.5-32.53,112-31.74,12.92.25,25.82,2,39.3,3.08v6.8q0,141,.11,281.94c0,4.5-1,6.28-5.7,7-53.78,8.19-104.22.29-149.36-31.52-24.32-17.14-41.47-39.7-47.28-69.59C167.71,261.73,167.88,257.52,167.54,252.52Z"/>
  <path class="cls-2" d="M370.38.37V35.6h-6c-19.48.11-39-.59-58.44.47C240,39.67,178.4,56.75,124.84,97c-26.41,19.86-47.56,44.25-59,75.69-16.75,46.09-7.59,88.35,21.26,126.84,22.78,30.4,53.15,51.37,87.28,67.22a320.53,320.53,0,0,0,112.22,29.54c25.53,1.87,51.21,1.54,76.83,2.18,2.13.06,4.27,0,6.75,0v35.3c-1.74.08-3.35.26-5,.23-29.45-.64-59-.08-88.32-2.21-59.1-4.29-116-17.78-168.3-46.69-36.2-20-66.66-46.25-86.92-82.93-36.95-66.85-25.87-149.95,27-205.45,33.91-35.61,75.71-58.07,121.77-73.42,34.7-11.56,70.38-18.92,106.87-21C307,.63,336.83.69,366.61,0A36.54,36.54,0,0,1,370.38.37Z"/>
</svg>
