<svg id="Layer_1" data-name="Layer 1" xmlns="http://www.w3.org/2000/svg" viewBox="0 0 370.91 434">
  <defs>
    <style>
      .cls-1 {
        fill: #fff;
      }

      .cls-2 {
        fill: #ce1443;
      }
    </style>
  </defs>
  <path class="cls-1" d="M167.59,252.52H310.72c11.85,0,16.26-4.42,16.26-16.25V199.85c0-9.62-4.76-14.37-14.44-14.37H167.38c.7-6.25.75-12.2,2.12-17.84,7.16-29.52,25.39-51.21,50-67.83C253.26,77,291,67.28,331.5,68.07c12.92.25,25.82,2,39.3,3.08V78q0,141,.11,281.94c0,4.5-1,6.28-5.7,7-53.78,8.19-104.22.29-149.36-31.52-24.32-17.14-41.47-39.7-47.28-69.59C167.76,261.73,167.93,257.52,167.59,252.52Z"/>
  <path class="cls-2" d="M370.43.37V35.6h-6c-19.48.11-39-.59-58.44.47C240.05,39.67,178.45,56.75,124.89,97c-26.41,19.86-47.56,44.25-59,75.69C49.14,218.78,58.3,261,87.15,299.53c22.78,30.4,53.15,51.37,87.28,67.22a320.67,320.67,0,0,0,112.22,29.54c25.53,1.87,51.21,1.54,76.83,2.18,2.13.06,4.27,0,6.75,0v35.3c-1.74.08-3.35.26-5,.23-29.45-.64-59-.08-88.32-2.21-59.1-4.29-116-17.78-168.3-46.69-36.2-20-66.66-46.25-86.92-82.93-36.95-66.85-25.87-150,27-205.45C82.6,61.11,124.4,38.65,170.46,23.3c34.7-11.56,70.38-18.92,106.87-21C307.05.63,336.88.69,366.66,0A36.72,36.72,0,0,1,370.43.37Z"/>
</svg>
